<svg width="4491" height="927" viewBox="0 0 4491 927" fill="none" xmlns="http://www.w3.org/2000/svg">
<rect x="55.1543" y="463.155" width="577" height="577" transform="rotate(-45 55.1543 463.155)" stroke="#3A3A3A" stroke-width="78"/>
<rect x="630.154" y="463.155" width="577" height="577" transform="rotate(-45 630.154 463.155)" stroke="#3A3A3A" stroke-width="78"/>
<path d="M2153.59 307.697L2050.1 641H1994.09L1921.25 413.266C1919.25 407.734 1917.41 400.973 1915.72 392.982C1914.79 396.824 1913.87 400.435 1912.95 403.815C1912.03 407.196 1911.03 410.346 1909.95 413.266L1836.42 641H1780.18L1676.92 307.697H1728.78C1734.16 307.697 1738.62 309.003 1742.15 311.615C1745.84 314.074 1748.3 317.455 1749.53 321.757L1806.23 521.14C1807.46 526.057 1808.61 531.436 1809.69 537.275C1810.92 542.961 1812.15 548.954 1813.37 555.254C1814.6 548.8 1815.91 542.73 1817.29 537.044C1818.83 531.359 1820.44 526.057 1822.13 521.14L1887.6 321.757C1888.82 318.223 1891.21 314.996 1894.74 312.076C1898.43 309.157 1902.89 307.697 1908.11 307.697H1926.32C1931.7 307.697 1936.08 309.003 1939.46 311.615C1942.84 314.228 1945.37 317.608 1947.06 321.757L2012.3 521.14C2015.52 530.667 2018.44 541.654 2021.06 554.101C2023.05 541.962 2025.28 530.975 2027.74 521.14L2084.44 321.757C2085.36 317.916 2087.67 314.612 2091.36 311.846C2095.2 309.08 2099.73 307.697 2104.96 307.697H2153.59ZM2443.07 515.147L2402.5 404.276C2400.5 399.359 2398.43 393.52 2396.28 386.758C2394.13 379.997 2391.97 372.698 2389.82 364.861C2387.82 372.698 2385.75 380.074 2383.6 386.989C2381.45 393.75 2379.37 399.666 2377.38 404.737L2337.04 515.147H2443.07ZM2552.56 641H2504.61C2499.23 641 2494.85 639.694 2491.47 637.081C2488.09 634.315 2485.56 630.935 2483.87 626.939L2458.97 558.942H2320.9L2296.01 626.939C2294.78 630.474 2292.4 633.701 2288.86 636.62C2285.33 639.54 2280.95 641 2275.73 641H2227.32L2358.47 307.697H2421.63L2552.56 641ZM2876.79 589.829V641H2681.56V307.697H2743.56V589.829H2876.79ZM3140.27 592.595C3151.79 592.595 3161.48 591.212 3169.31 588.446C3177.15 585.68 3183.37 581.992 3187.98 577.382C3192.75 572.772 3196.13 567.394 3198.12 561.247C3200.28 555.1 3201.35 548.569 3201.35 541.654C3201.35 534.432 3200.2 527.978 3197.89 522.292C3195.59 516.453 3191.98 511.536 3187.06 507.54C3182.14 503.391 3175.77 500.241 3167.93 498.09C3160.25 495.939 3150.95 494.863 3140.04 494.863H3077.57V592.595H3140.27ZM3077.57 355.641V451.99H3126.9C3148.11 451.99 3164.09 448.148 3174.84 440.465C3185.75 432.782 3191.21 420.565 3191.21 403.815C3191.21 386.451 3186.29 374.081 3176.46 366.705C3166.62 359.329 3151.26 355.641 3130.36 355.641H3077.57ZM3130.36 307.697C3152.18 307.697 3170.85 309.771 3186.37 313.92C3201.89 318.069 3214.57 323.986 3224.4 331.669C3234.39 339.352 3241.69 348.649 3246.3 359.559C3250.91 370.47 3253.21 382.763 3253.21 396.439C3253.21 404.276 3252.06 411.806 3249.76 419.028C3247.45 426.097 3243.84 432.782 3238.92 439.082C3234.16 445.229 3228.01 450.837 3220.48 455.908C3213.11 460.979 3204.27 465.282 3193.98 468.816C3239.77 479.112 3262.66 503.852 3262.66 543.037C3262.66 557.175 3259.98 570.236 3254.6 582.222C3249.22 594.208 3241.38 604.581 3231.09 613.34C3220.79 621.945 3208.11 628.707 3193.05 633.624C3177.99 638.541 3160.78 641 3141.42 641H3015.57V307.697H3130.36ZM3547.66 590.981C3559.64 590.981 3570.32 588.984 3579.7 584.988C3589.22 580.993 3597.21 575.384 3603.67 568.162C3610.12 560.94 3615.04 552.181 3618.42 541.885C3621.95 531.589 3623.72 520.064 3623.72 507.31V307.697H3685.73V507.31C3685.73 527.133 3682.5 545.496 3676.05 562.399C3669.74 579.149 3660.6 593.671 3648.62 605.964C3636.78 618.104 3622.34 627.631 3605.28 634.546C3588.22 641.307 3569.02 644.688 3547.66 644.688C3526.14 644.688 3506.86 641.307 3489.8 634.546C3472.74 627.631 3458.22 618.104 3446.24 605.964C3434.4 593.671 3425.26 579.149 3418.81 562.399C3412.51 545.496 3409.36 527.133 3409.36 507.31V307.697H3471.36V507.079C3471.36 519.834 3473.05 531.359 3476.43 541.654C3479.97 551.95 3484.96 560.786 3491.41 568.162C3498.02 575.384 3506.01 580.993 3515.39 584.988C3524.91 588.984 3535.67 590.981 3547.66 590.981ZM3950.89 466.281C3962.57 466.281 3972.71 464.821 3981.31 461.901C3990.07 458.982 3997.22 454.986 4002.75 449.915C4008.44 444.691 4012.66 438.544 4015.43 431.475C4018.19 424.407 4019.58 416.647 4019.58 408.195C4019.58 391.292 4013.97 378.307 4002.75 369.24C3991.69 360.174 3974.71 355.641 3951.81 355.641H3912.16V466.281H3950.89ZM4110.39 641H4054.38C4043.78 641 4036.1 636.851 4031.33 628.553L3961.26 521.831C3958.65 517.836 3955.73 514.993 3952.5 513.303C3949.43 511.613 3944.82 510.768 3938.67 510.768H3912.16V641H3850.16V307.697H3951.81C3974.4 307.697 3993.76 310.079 4009.9 314.842C4026.18 319.452 4039.48 325.983 4049.77 334.435C4060.22 342.887 4067.9 353.029 4072.82 364.861C4077.74 376.54 4080.2 389.448 4080.2 403.585C4080.2 414.803 4078.51 425.406 4075.13 435.394C4071.9 445.382 4067.14 454.449 4060.84 462.593C4054.69 470.737 4047.01 477.883 4037.79 484.029C4028.72 490.176 4018.35 495.017 4006.67 498.551C4010.66 500.856 4014.35 503.622 4017.73 506.849C4021.11 509.922 4024.19 513.61 4026.95 517.913L4110.39 641ZM4368.73 511.92V641H4306.95V511.92L4185.48 307.697H4240.11C4245.49 307.697 4249.71 309.003 4252.78 311.615C4256.01 314.228 4258.7 317.532 4260.85 321.527L4321.7 432.858C4325.24 439.466 4328.31 445.69 4330.92 451.529C4333.69 457.368 4336.15 463.208 4338.3 469.047C4340.3 463.208 4342.6 457.368 4345.22 451.529C4347.83 445.69 4350.82 439.466 4354.2 432.858L4414.83 321.527C4416.52 318.146 4419.05 314.996 4422.43 312.076C4425.81 309.157 4430.12 307.697 4435.34 307.697H4490.2L4368.73 511.92Z" fill="#3A3A3A"/>
<rect x="533" y="463.421" width="200" height="200" transform="rotate(-45 533 463.421)" fill="#FFFFF8"/>
<rect x="685" y="463.421" width="200" height="200" transform="rotate(-45 685 463.421)" fill="#FFFFF8"/>
</svg>
